<svg xmlns="http://www.w3.org/2000/svg" viewBox="0 0 24 22.199"><defs><style>.a{fill:#fff;}</style></defs><path class="a" d="M2.752,29.836,2.17,33.1a.832.832,0,0,0,.34.837.8.8,0,0,0,.5.156.752.752,0,0,0,.4-.1l3.4-1.83c.738,3.191,4.284,5.617,8.525,5.617q.447,0,.894-.043l4.383,2.355a.824.824,0,0,0,.4.1.894.894,0,0,0,.5-.156.832.832,0,0,0,.34-.837l-.582-3.262A6.242,6.242,0,0,0,24,30.942c0-3.177-2.794-5.943-6.7-6.667-.369-3.5-4.1-6.284-8.638-6.284C3.887,17.992,0,21.056,0,24.829A6.28,6.28,0,0,0,2.752,29.836Zm19.56,1.106a4.7,4.7,0,0,1-2.426,3.887.867.867,0,0,0-.383.865l.369,2.071L16.809,36.12a.872.872,0,0,0-.5-.1c-.326.028-.667.057-.979.057-3.5,0-6.411-1.915-6.894-4.4h.227c4.284,0,7.844-2.468,8.539-5.688C20.2,26.616,22.312,28.644,22.312,30.942ZM8.681,19.708c3.844,0,6.965,2.3,6.965,5.135s-3.121,5.135-6.965,5.135a7.7,7.7,0,0,1-.979-.057.872.872,0,0,0-.5.1L4.142,31.666l.369-2.071a.843.843,0,0,0-.383-.865A4.7,4.7,0,0,1,1.7,24.843C1.716,22.02,4.837,19.708,8.681,19.708Z" transform="translate(0 -17.992)"/></svg>