<svg xmlns="http://www.w3.org/2000/svg" viewBox="0 0 20 20"><path d="M.829,7.514h6.05a.84.84,0,0,0,.773-.9V.829a.829.829,0,1,0-1.657,0V4.738L1.768.483a.825.825,0,0,0-1.16,0,.877.877,0,0,0,0,1.2L4.751,5.856H.829a.829.829,0,0,0,0,1.657Z" transform="translate(0 0)"/><path class="a" d="M.829,255.227h3.84L.483,259.412a.842.842,0,0,0,0,1.174.818.818,0,0,0,.58.249.864.864,0,0,0,.58-.235l4.213-4.213v4.006a.829.829,0,0,0,1.657,0v-5.967a.831.831,0,0,0-.815-.843H.829a.831.831,0,0,0-.829.829A.819.819,0,0,0,.829,255.227Z" transform="translate(0 -241.221)"/><path class="a" d="M260.952,262.629a.831.831,0,0,0-.829-.829H254.2a.848.848,0,0,0-.9.773V268.2a.829.829,0,1,0,1.657,0v-3.771l4.171,4.13a.857.857,0,0,0,.608.249.826.826,0,0,0,.594-.249.8.8,0,0,0,0-1.146l-3.978-3.95h3.771A.831.831,0,0,0,260.952,262.629Z" transform="translate(-240.952 -249.038)"/><path class="a" d="M260.123,6.133h-4.005l4.2-4.2a.842.842,0,0,0,0-1.174.877.877,0,0,0-1.2,0l-4.157,4.13V.829a.829.829,0,1,0-1.657,0V6.961a.893.893,0,0,0,.9.829h5.925a.829.829,0,1,0,0-1.657Z" transform="translate(-240.952 0)"/></svg>
