<svg xmlns="http://www.w3.org/2000/svg" viewBox="0 0 19.688 20">
<path d="M0,256a.738.738,0,0,0,.766.778H6.494a.833.833,0,0,0,0-1.667H2.748l4.676-4.722a.839.839,0,0,0,0-1.167.792.792,0,0,0-1.135,0l-4.648,4.75V249.9a.829.829,0,0,0-.82-.833A.829.829,0,0,0,0,249.9Z" transform="translate(0 -236.774)"/>
<path d="M252.45,256.21a.829.829,0,0,0,.82.833h5.906a.738.738,0,0,0,.766-.778v-5.9a.82.82,0,1,0-1.641,0v3.694l-4.457-4.556a.808.808,0,0,0-1.148,0,.822.822,0,0,0,0,1.153l4.676,4.722h-4.129A.824.824,0,0,0,252.45,256.21Z" transform="translate(-240.268 -237.044)"/><path d="M7.656.833A.829.829,0,0,0,6.836,0H.766A.738.738,0,0,0,0,.778V6.736a.829.829,0,0,0,.82.833.829.829,0,0,0,.82-.833V2.6l4.648,4.75a.774.774,0,0,0,.561.25.8.8,0,0,0,.574-.25.822.822,0,0,0,0-1.153L2.939,1.667h3.9A.821.821,0,0,0,7.656.833Z"/><path d="M253.5,7.347a.8.8,0,0,0,.574.25.724.724,0,0,0,.547-.25l4.471-4.556V6.736a.82.82,0,1,0,1.641,0V.778A.738.738,0,0,0,259.965,0H254.4a.833.833,0,0,0,0,1.667H258l-4.484,4.528A.81.81,0,0,0,253.5,7.347Z" transform="translate(-241.043)"/></svg>
