<svg xmlns="http://www.w3.org/2000/svg" viewBox="0 0 16.226 16">
<path d="M6.761,3.509a.678.678,0,0,0-.676-.676H.676A.678.678,0,0,0,0,3.509V8.917a.678.678,0,0,0,.676.676H6.084a.678.678,0,0,0,.676-.676Zm-5.408.676H5.408V8.241H1.352Z" transform="translate(0 -2.833)"/>
<path d="M244.761,3.509a.678.678,0,0,0-.676-.676h-5.408a.678.678,0,0,0-.676.676V8.917a.678.678,0,0,0,.676.676h5.408a.678.678,0,0,0,.676-.676Zm-5.408.676h4.056V8.241h-4.056Z" transform="translate(-228.535 -2.833)"/>
<path d="M6.761,235.843a.678.678,0,0,0-.676-.676H.676a.678.678,0,0,0-.676.676v5.408a.678.678,0,0,0,.676.676H6.084a.678.678,0,0,0,.676-.676Zm-5.408.676H5.408v4.056H1.352Z" transform="translate(0 -225.928)"/>
<path d="M244.761,235.843a.678.678,0,0,0-.676-.676h-5.408a.678.678,0,0,0-.676.676v5.408a.678.678,0,0,0,.676.676h5.408a.678.678,0,0,0,.676-.676Zm-5.408.676h4.056v4.056h-4.056Z" transform="translate(-228.535 -225.928)"/>
</svg>
