<svg xmlns="http://www.w3.org/2000/svg" viewBox="0 0 24 24">
<path d="M12,0A12,12,0,1,0,24,12,12.01,12.01,0,0,0,12,0Zm0,22.365A10.365,10.365,0,1,1,22.365,12,10.371,10.371,0,0,1,12,22.365Z"/>
<path d="M176.484,139.117a.82.82,0,0,0-.817.817v8.581a.817.817,0,0,0,1.635,0v-8.581A.82.82,0,0,0,176.484,139.117Z" transform="translate(-167.222 -132.429)"/>
<path d="M292.65,139.117a.82.82,0,0,0-.817.817v8.581a.817.817,0,0,0,1.635,0v-8.581A.82.82,0,0,0,292.65,139.117Z" transform="translate(-277.804 -132.429)"/>
</svg>
